 HIERARCHY
ROOT Hips
{
   OFFSET 0.0 0.0 96.619003
   CHANNELS 6 Xposition Yposition Zposition Yrotation Xrotation Zrotation
   JOINT RightUpLeg
   {
      OFFSET -11.0 0.0 0.0
      CHANNELS 3 Yrotation Xrotation Zrotation
      JOINT RightLeg
      {
         OFFSET 0.0 -45.062 0.0
         CHANNELS 3 Yrotation Xrotation Zrotation
         JOINT RightFoot
         {
            OFFSET 0.0 -42.057999 0.0
            CHANNELS 3 Yrotation Xrotation Zrotation
              End Site
              {
                  OFFSET 0 0 0
              }
         }
      }
   }
   JOINT LeftUpLeg
   {
      OFFSET 11.0 0.0 0.0
      CHANNELS 3 Yrotation Xrotation Zrotation
      JOINT LeftLeg
      {
         OFFSET 0.0 -45.062 0.0
         CHANNELS 3 Yrotation Xrotation Zrotation
         JOINT LeftFoot
         {
            OFFSET 0.0 -42.057999 0.0
            CHANNELS 3 Yrotation Xrotation Zrotation
              End Site
              {
                  OFFSET 0 0 0
              }
         }
      }
   }
   JOINT Spine
   {
      OFFSET 0.0 8.12 0.0
      CHANNELS 3 Yrotation Xrotation Zrotation
      JOINT Spine1
      {
         OFFSET 0.0 17.98 0.0
         CHANNELS 3 Yrotation Xrotation Zrotation
         JOINT Spine2
         {
            OFFSET 0.0 12.76 0.0
            CHANNELS 3 Yrotation Xrotation Zrotation
            JOINT Neck
            {
               OFFSET 0.0 19.139999 0.0
               CHANNELS 3 Yrotation Xrotation Zrotation
               JOINT Neck1
               {
                  OFFSET 0.0 4.25 0.0
                  CHANNELS 3 Yrotation Xrotation Zrotation
                  JOINT Head
                  {
                     OFFSET 0.0 4.25 0.0
                     CHANNELS 3 Yrotation Xrotation Zrotation
                       End Site
                       {
                           OFFSET 0 0 0
                       }
                  }
               }
            }
            JOINT RightShoulder
            {
               OFFSET -2.9 13.34 0.0
               CHANNELS 3 Yrotation Xrotation Zrotation
               JOINT RightArm
               {
                  OFFSET -16.1 0.0 0.0
                  CHANNELS 3 Yrotation Xrotation Zrotation
                  JOINT RightForeArm
                  {
                     OFFSET -28.0 0.0 0.0
                     CHANNELS 3 Yrotation Xrotation Zrotation
                     JOINT RightHand
                     {
                        OFFSET -26.0 0.0 0.0
                        CHANNELS 3 Yrotation Xrotation Zrotation
                        JOINT RightHandThumb1
                        {
                           OFFSET -2.702 0.206 3.388
                           CHANNELS 3 Yrotation Xrotation Zrotation
                           JOINT RightHandThumb2
                           {
                              OFFSET -3.998 0.0 0.0
                              CHANNELS 3 Yrotation Xrotation Zrotation
                              JOINT RightHandThumb3
                              {
                                 OFFSET -2.778 0.0 0.0
                                 CHANNELS 3 Yrotation Xrotation Zrotation
                                   End Site
                                   {
                                       OFFSET 0 0 0
                                   }
                              }
                           }
                        }
                        JOINT RightHandIndex
                        {
                           OFFSET -3.5 0.552 2.148
                           CHANNELS 3 Yrotation Xrotation Zrotation
                           JOINT RightHandIndex1
                           {
                              OFFSET -5.664001 -0.099 1.085
                              CHANNELS 3 Yrotation Xrotation Zrotation
                              JOINT RightHandIndex2
                              {
                                 OFFSET -3.93 0.0 0.0
                                 CHANNELS 3 Yrotation Xrotation Zrotation
                                 JOINT RightHandIndex3
                                 {
                                    OFFSET -2.228 0.0 0.0
                                    CHANNELS 3 Yrotation Xrotation Zrotation
                                      End Site
                                      {
                                          OFFSET 0 0 0
                                      }
                                 }
                              }
                           }
                        }
                        JOINT RightHandMiddle
                        {
                           OFFSET -3.672 0.562 0.822
                           CHANNELS 3 Yrotation Xrotation Zrotation
                           JOINT RightHandMiddle1
                           {
                              OFFSET -5.618 -0.091 0.341
                              CHANNELS 3 Yrotation Xrotation Zrotation
                              JOINT RightHandMiddle2
                              {
                                 OFFSET -4.288001 0.0 0.0
                                 CHANNELS 3 Yrotation Xrotation Zrotation
                                 JOINT RightHandMiddle3
                                 {
                                    OFFSET -2.688 0.0 0.0
                                    CHANNELS 3 Yrotation Xrotation Zrotation
                                      End Site
                                      {
                                          OFFSET 0 0 0
                                      }
                                 }
                              }
                           }
                        }
                        JOINT RightHandRing
                        {
                           OFFSET -3.654001 0.584 -0.14
                           CHANNELS 3 Yrotation Xrotation Zrotation
                           JOINT RightHandRing1
                           {
                              OFFSET -5.032 -0.024 -0.52
                              CHANNELS 3 Yrotation Xrotation Zrotation
                              JOINT RightHandRing2
                              {
                                 OFFSET -3.737 0.0 0.0
                                 CHANNELS 3 Yrotation Xrotation Zrotation
                                 JOINT RightHandRing3
                                 {
                                    OFFSET -2.593 0.0 0.0
                                    CHANNELS 3 Yrotation Xrotation Zrotation
                                      End Site
                                      {
                                          OFFSET 0 0 0
                                      }
                                 }
                              }
                           }
                        }
                        JOINT RightHandPinky
                        {
                           OFFSET -3.432 0.51 -1.305
                           CHANNELS 3 Yrotation Xrotation Zrotation
                           JOINT RightHandPinky1
                           {
                              OFFSET -4.496 -0.024 -1.184
                              CHANNELS 3 Yrotation Xrotation Zrotation
                              JOINT RightHandPinky2
                              {
                                 OFFSET -2.993 0.0 0.0
                                 CHANNELS 3 Yrotation Xrotation Zrotation
                                 JOINT RightHandPinky3
                                 {
                                    OFFSET -1.891 0.0 0.0
                                    CHANNELS 3 Yrotation Xrotation Zrotation
                                      End Site
                                      {
                                          OFFSET 0 0 0
                                      }
                                 }
                              }
                           }
                        }
                     }
                  }
               }
            }
            JOINT LeftShoulder
            {
               OFFSET 2.9 13.34 0.0
               CHANNELS 3 Yrotation Xrotation Zrotation
               JOINT LeftArm
               {
                  OFFSET 16.1 0.0 0.0
                  CHANNELS 3 Yrotation Xrotation Zrotation
                  JOINT LeftForeArm
                  {
                     OFFSET 28.0 0.0 0.0
                     CHANNELS 3 Yrotation Xrotation Zrotation
                     JOINT LeftHand
                     {
                        OFFSET 26.0 0.0 0.0
                        CHANNELS 3 Yrotation Xrotation Zrotation
                        JOINT LeftHandThumb1
                        {
                           OFFSET 2.702 0.206 3.388
                           CHANNELS 3 Yrotation Xrotation Zrotation
                           JOINT LeftHandThumb2
                           {
                              OFFSET 3.998 0.0 0.0
                              CHANNELS 3 Yrotation Xrotation Zrotation
                              JOINT LeftHandThumb3
                              {
                                 OFFSET 2.778 0.0 0.0
                                 CHANNELS 3 Yrotation Xrotation Zrotation
                                   End Site
                                   {
                                       OFFSET 0 0 0
                                   }
                              }
                           }
                        }
                        JOINT LeftHandIndex
                        {
                           OFFSET 3.5 0.552 2.148
                           CHANNELS 3 Yrotation Xrotation Zrotation
                           JOINT LeftHandIndex1
                           {
                              OFFSET 5.664001 -0.099 1.085
                              CHANNELS 3 Yrotation Xrotation Zrotation
                              JOINT LeftHandIndex2
                              {
                                 OFFSET 3.93 0.0 0.0
                                 CHANNELS 3 Yrotation Xrotation Zrotation
                                 JOINT LeftHandIndex3
                                 {
                                    OFFSET 2.228 0.0 0.0
                                    CHANNELS 3 Yrotation Xrotation Zrotation
                                      End Site
                                      {
                                          OFFSET 0 0 0
                                      }
                                 }
                              }
                           }
                        }
                        JOINT LeftHandMiddle
                        {
                           OFFSET 3.672 0.562 0.822
                           CHANNELS 3 Yrotation Xrotation Zrotation
                           JOINT LeftHandMiddle1
                           {
                              OFFSET 5.618 -0.091 0.341
                              CHANNELS 3 Yrotation Xrotation Zrotation
                              JOINT LeftHandMiddle2
                              {
                                 OFFSET 4.288001 0.0 0.0
                                 CHANNELS 3 Yrotation Xrotation Zrotation
                                 JOINT LeftHandMiddle3
                                 {
                                    OFFSET 2.688 0.0 0.0
                                    CHANNELS 3 Yrotation Xrotation Zrotation
                                      End Site
                                      {
                                          OFFSET 0 0 0
                                      }
                                 }
                              }
                           }
                        }
                        JOINT LeftHandRing
                        {
                           OFFSET 3.654001 0.584 -0.14
                           CHANNELS 3 Yrotation Xrotation Zrotation
                           JOINT LeftHandRing1
                           {
                              OFFSET 5.032 -0.024 -0.52
                              CHANNELS 3 Yrotation Xrotation Zrotation
                              JOINT LeftHandRing2
                              {
                                 OFFSET 3.737 0.0 0.0
                                 CHANNELS 3 Yrotation Xrotation Zrotation
                                 JOINT LeftHandRing3
                                 {
                                    OFFSET 2.593 0.0 0.0
                                    CHANNELS 3 Yrotation Xrotation Zrotation
                                      End Site
                                      {
                                          OFFSET 0 0 0
                                      }
                                 }
                              }
                           }
                        }
                        JOINT LeftHandPinky
                        {
                           OFFSET 3.432 0.51 -1.305
                           CHANNELS 3 Yrotation Xrotation Zrotation
                           JOINT LeftHandPinky1
                           {
                              OFFSET 4.496 -0.024 -1.184
                              CHANNELS 3 Yrotation Xrotation Zrotation
                              JOINT LeftHandPinky2
                              {
                                 OFFSET 2.993 0.0 0.0
                                 CHANNELS 3 Yrotation Xrotation Zrotation
                                 JOINT LeftHandPinky3
                                 {
                                    OFFSET 1.891 0.0 0.0
                                    CHANNELS 3 Yrotation Xrotation Zrotation
                                      End Site
                                      {
                                          OFFSET 0 0 0
                                      }
                                 }
                              }
                           }
                        }
                     }
                  }
               }
            }
         }
      }
   }
}
MOTION
Frames: 4
Frame Time: 0.011111
-21.6523 44.5677 128.266 139.017 72.5641 -37.2026 4.10911 -160.894 5.48593 12.6491 114.013 22.3582 178.062 165.788 170.365 10.1763 -166.893 -0.576159 174.577 59.7329 176.259 2.04944 1.62783 5.10554 180 179.521 179.932 180 -179.889 -179.984 0.140556 0.416818 -2.3797 179.887 -168.389 -175.459 179.887 -168.389 -175.459 179.868 -168.035 -175.317 2.72076 0.819447 -16.749 85.5031 1.50275 -1.62601 77.8041 -57.8838 -51.9069 26.2712 30.4828 -45.7706 90 80 57.5944 8.57041e-06 -2.3919e-06 31.1876 180 -180 -169.406 0 6.83019e-06 0 0 -6.83019e-06 -0 0 6.83019e-06 0 0 -6.83019e-06 -0 0 6.83019e-06 0 0 -6.83019e-06 -0 0 6.83019e-06 0 0 -6.83019e-06 -0 0 6.83019e-06 0 0 -6.83019e-06 -0 0 6.83019e-06 0 0 -6.83019e-06 -0 0 6.83019e-06 0 0 -6.83019e-06 -0 0 6.83019e-06 0 0 -6.83019e-06 -0 0.783898 -0.186065 13.3517 124.669 -176.16 172.683 84.4821 -121.386 -126.413 139.594 -107.688 42.8911 115.205 141.399 146.156 180 180 95.875 3.1873e-06 -1.82381e-06 -49.3673 180 -180 -180 175 180 91 180 -180 70 180 -180 100 180 -180 -180 1.45114 1.44074e-06 -67.7444 180 180 112.256 180 180 129.192 180 -180 -180 5.00001 4.48231e-06 -89 2.01706e-06 -1.57856e-06 -103.906 180 -180 102.07 180 -180 -180 10 5.12264e-06 -89 180 180 70 4.81129e-06 -4.20934e-07 -80 
-21.6455 44.7062 128.266 139.291 72.4777 -36.958 4.21193 -160.645 5.45063 12.8146 113.872 22.4278 178.017 165.836 170.323 10.0915 -166.645 -0.558595 174.531 59.4831 176.611 1.82861 2.94633 6.52597 180 179.525 179.95 180 -179.888 -179.988 0.14022 0.456341 -2.35149 179.895 -168.394 -175.469 179.895 -168.394 -175.469 179.877 -168.04 -175.328 2.72429 0.816817 -16.6777 85.5743 1.39984 -1.51243 77.3752 -57.729 -51.4554 26.1963 30.4375 -45.8265 89.9999 80 57.5943 180 -180 -148.812 180 180 -169.406 3.41509e-06 -3.41509e-06 -3.41509e-06 0 -0 -6.83019e-06 0 -0 6.83019e-06 0 -0 -6.83019e-06 3.41509e-06 -3.41509e-06 -3.41509e-06 0 -0 -6.83019e-06 0 -0 6.83019e-06 0 -0 -6.83019e-06 3.41509e-06 -3.41509e-06 -3.41509e-06 0 -0 -6.83019e-06 0 -0 6.83019e-06 0 -0 -6.83019e-06 3.41509e-06 -3.41509e-06 -3.41509e-06 0 -0 -6.83019e-06 0 -0 6.83019e-06 0 -0 -6.83019e-06 0.79633 -0.188676 13.3285 124.81 -176.128 172.599 84.807 -121.475 -126.859 139.165 -175.277 -106.415 115.205 141.399 146.156 180 -180 95.875 2.11768e-06 5.03474e-07 -49.3672 180 180 -180 175 -180 91 180 180 70 180 -180 100 180 180 -180 1.45113 -9.07135e-06 -67.7444 180 -180 112.256 0 -0 -50.8083 180 180 -180 5 -5.33609e-06 -89 2.01706e-06 -1.57856e-06 -103.906 180 -180 102.07 180 180 -180 10 8.53774e-07 -89 180 180 70 2.61611e-06 2.19518e-06 -80 
-21.6343 44.8493 128.273 139.683 72.3916 -36.5738 4.32896 -160.324 5.4284 13.0395 113.705 22.5456 177.969 165.892 170.274 9.99436 -166.34 -0.555419 174.405 59.4023 176.818 1.65276 4.41664 8.0202 180 179.465 179.938 180 -179.868 -179.985 0.139929 0.484247 -2.31323 179.905 -168.398 -175.483 179.904 -168.398 -175.483 179.887 -168.044 -175.343 2.72437 0.812968 -16.603 85.6237 1.29294 -1.39558 76.9916 -57.575 -51.0398 26.1368 30.3924 -45.8632 90 80 57.5944 180 -180 -148.812 180 180 -169.406 0 -0 6.83019e-06 0 -0 -6.83019e-06 0 -0 6.83019e-06 0 -0 -6.83019e-06 0 -0 6.83019e-06 0 -0 -6.83019e-06 0 -0 6.83019e-06 0 -0 -6.83019e-06 0 -0 6.83019e-06 0 -0 -6.83019e-06 0 -0 6.83019e-06 0 -0 -6.83019e-06 0 -0 6.83019e-06 0 -0 -6.83019e-06 0 -0 6.83019e-06 0 -0 -6.83019e-06 0.800361 -0.189089 13.2918 124.853 -176.071 172.484 85.2417 -121.604 -127.32 139.453 112.038 -126.724 115.205 141.399 146.156 2.27886e-07 -4.39434e-06 -84.125 6.9721e-06 -2.9032e-06 -49.3673 1.70755e-06 3.41509e-06 5.08889e-14 175 -180 91 2.30778e-06 -2.65819e-06 -110 180 180 100 1.70755e-06 3.41509e-06 5.08889e-14 1.45113 -5.28272e-06 -67.7444 1.01136e-06 3.08895e-06 -67.7444 3.16223e-06 5.28248e-06 -50.8083 1.70755e-06 3.41509e-06 5.08889e-14 5 -2.98821e-06 -89 180 -180 76.0938 5.65993e-07 -6.13058e-06 -77.9296 1.70755e-06 3.41509e-06 5.08889e-14 10 1.70755e-06 -89 180 180 70 0 -0 -80 
-21.6258 44.9999 128.274 139.717 72.3722 -36.5771 4.42402 -160.13 5.39169 13.2694 113.546 22.664 177.946 165.98 170.239 9.87711 -166.168 -0.535087 174.228 59.6213 176.725 1.60871 4.44887 8.0372 180 179.619 179.962 180 -179.922 -179.992 0.13963 0.520336 -2.28375 179.912 -168.403 -175.501 179.912 -168.403 -175.501 179.894 -168.049 -175.361 2.72389 0.808675 -16.5229 85.6317 1.17764 -1.27149 76.685 -57.4465 -50.7007 26.1 30.3519 -45.8752 90 80 57.5944 180 180 -148.812 180 180 -169.406 1.02453e-05 3.41509e-06 -3.41509e-06 180 180 180 0 -0 -0 0 -0 -0 1.02453e-05 3.41509e-06 -3.41509e-06 180 180 180 0 -0 -0 0 -0 -0 1.02453e-05 3.41509e-06 -3.41509e-06 180 180 180 0 -0 -0 0 -0 -0 1.02453e-05 3.41509e-06 -3.41509e-06 180 180 180 0 -0 -0 0 -0 -0 0.79362 -0.187004 13.2581 124.803 -176.019 172.392 85.7716 -121.716 -127.752 138.917 42.4093 -139.074 115.205 141.399 146.156 1.7431e-06 1.57294e-06 -84.125 3.90039e-06 -3.37534e-06 -49.3672 180 180 -180 175 180 91 7.44786e-06 -8.34184e-06 -110 180 180 100 180 180 -180 1.45113 -5.38945e-06 -67.7444 9.76047e-06 2.31018e-06 -67.7444 8.09896e-07 2.27497e-06 -50.8083 180 180 -180 5.00001 4.26887e-07 -89 6.19734e-06 -5.93421e-06 -103.906 5.3689e-07 -6.63836e-07 -77.9297 180 180 -180 10 4.26887e-07 -89 180 -180 70 0 -0 -80 
